<?xml version="1.0" encoding="UTF-8"?><!DOCTYPE svg PUBLIC "-//W3C//DTD SVG 1.1//EN" "http://www.w3.org/Graphics/SVG/1.1/DTD/svg11.dtd"><svg xmlns="http://www.w3.org/2000/svg"><symbol id="icon-facebook" viewBox="0 0 10 19">
    <title>
        facebook
    </title>
    <path d="M9.766.157v2.946H8.014c-.64 0-1.071.134-1.295.402-.223.268-.335.67-.335 1.205v2.11h3.27l-.435 3.303H6.384v8.471H2.97v-8.47H.123V6.82H2.97V4.387c0-1.384.387-2.457 1.161-3.22C4.904.404 5.934.023 7.222.023c1.093 0 1.941.045 2.544.134z" fill-rule="evenodd"/>
</symbol><symbol id="icon-if_dislike" viewBox="0 0 44 49">
    <path d="M35 0h8c.6 0 1 .4 1 1v29c0 .6-.5 1-1 1h-8c-.6 0-1-.4-1-1V1c0-.6.5-1 1-1zm7 2h-6v27h6V2zM18.2 2h2.1c2.7.1 5.9.6 8.2.9 1.1.2 2.1.3 2.7.3.5 0 .9.5.9 1v23.7c0 .4-.3.8-.6.9l-.5.2c-2.3.8-7 2.6-9.4 5.2-2.6 2.7-3.8 6.4-3.8 10.8-.1 1.4-.9 4-3.6 4-.5 0-1.1-.1-1.8-.3-.1 0-.3-.1-.4-.2-1.1-1.1-4.7-7.6-1.3-17.5H5c-.4 0-3.4-.1-4.6-3.9-.2-.5-1-2.6.8-5.2-.5-.9-1.3-2.8-.4-4.8.1-.2.5-1.4 1.3-2.2-.5-1.7-.4-4.5 2-6.5.1-1.2.6-4 3-5 .3 0 4.5-1.4 11.1-1.4zM30 5.1c-.5-.1-1.2-.2-1.9-.3-2.3-.3-5.4-.7-8-.9-7.4-.2-12.2 1.4-12.3 1.4-1.7.7-1.7 3.6-1.7 3.6 0 .3-.2.6-.4.8-2.8 2-1.5 5-1.5 5.2.2.5 0 1-.5 1.3-.4.2-.9 1.1-1.1 1.6-.8 1.8.5 3.5.5 3.5.3.4.3.9 0 1.3-1.7 2-1 3.6-1 3.7 0 0 0 .1.1.1C3 28.9 4.8 29 5 29h7.2c.3 0 .6.2.8.4.2.3.2.6.1.9-3.5 9.1-.7 15.3.2 16.6.3.1.6.1.8.1 1.4 0 1.5-1.8 1.5-2 0-4.9 1.4-9 4.3-12.1 2.7-2.9 7.5-4.7 10-5.6V5.1zM39 4c.6 0 1 .5 1 1 0 .6-.4 1-1 1s-1-.5-1-1 .5-1 1-1z"/>
</symbol><symbol id="icon-if_like" viewBox="0 0 32 32">
    <g clip-rule="evenodd" fill-rule="evenodd">
        <path d="M29.164 10.472c-1.25-.328-4.189-.324-8.488-.438.203-.938.25-1.784.25-3.286C20.926 3.16 18.312 0 16 0c-1.633 0-2.979 1.335-3 2.977-.022 2.014-.645 5.492-4 7.256-.246.13-.95.477-1.053.522L8 10.8c-.525-.453-1.253-.8-2-.8H3c-1.654 0-3 1.346-3 3v16c0 1.654 1.346 3 3 3h3c1.19 0 2.186-.719 2.668-1.727.012.004.033.01.047.012l.239.062.046.012c.576.143 1.685.408 4.055.953.508.116 3.192.688 5.972.688h5.467c1.666 0 2.867-.641 3.582-1.928.01-.02.24-.469.428-1.076a3.33 3.33 0 0 0 .023-1.76c1.074-.738 1.42-1.854 1.645-2.58.377-1.191.264-2.086.002-2.727.604-.57 1.119-1.439 1.336-2.766a3.757 3.757 0 0 0-.389-2.372c.566-.636.824-1.436.854-2.176l.012-.209c.007-.131.013-.212.013-.5 0-1.263-.875-2.874-2.836-3.434zM7 29a1 1 0 0 1-1 1H3a1 1 0 0 1-1-1V13a1 1 0 0 1 1-1h3a1 1 0 0 1 1 1v16zm22.977-14.465C29.957 15.029 29.75 16 28 16h-2a.5.5 0 1 0 0 1h1.938c1.5 0 1.697 1.244 1.6 1.844-.124.746-.474 2.156-2.163 2.156H25a.499.499 0 1 0 0 1h1.969c1.688 0 1.539 1.287 1.297 2.055-.319 1.009-.514 1.945-2.641 1.945h-1.631a.499.499 0 1 0 0 1h1.568c1.094 0 1.145 1.035 1.031 1.406-.125.406-.273.707-.279.721-.302.545-.789.873-1.82.873h-5.467c-2.746 0-5.47-.623-5.54-.639-4.154-.957-4.373-1.031-4.634-1.105 0 0-.846-.143-.846-.881L8 13.563c0-.469.299-.893.794-1.042.062-.024.146-.05.206-.075 4.568-1.892 5.959-6.04 6-9.446.006-.479.375-1 1-1 1.057 0 2.926 2.122 2.926 4.748 0 2.371-.096 2.781-.926 5.252 10 0 9.93.144 10.812.375 1.094.313 1.188 1.219 1.188 1.531 0 .343-.01.293-.023.629z"/>
        <path d="M4.5 26a1.5 1.5 0 1 0 .001 3.001A1.5 1.5 0 0 0 4.5 26zm0 2c-.275 0-.5-.225-.5-.5s.225-.5.5-.5.5.225.5.5-.225.5-.5.5z"/>
    </g>
</symbol></svg>